<svg data-v-0dd9719b="" version="1.0" xmlns="http://www.w3.org/2000/svg" xmlns:xlink="http://www.w3.org/1999/xlink" width="100%" height="100%" viewBox="0 0 340.000000 250.000000" preserveAspectRatio="xMidYMid meet" color-interpolation-filters="sRGB" style="margin: auto;"> <rect data-v-0dd9719b="" x="0" y="0" width="100%" height="100%" fill="#fff" fill-opacity="1" class="background"></rect> <rect data-v-0dd9719b="" x="0" y="0" width="100%" height="100%" fill="url(#watermark)" fill-opacity="1" class="watermarklayer"></rect> <g data-v-0dd9719b="" fill="#333" class="icon-text-wrapper icon-svg-group iconsvg" transform="translate(47.06500244158539,88.64341354370117)"><g class="iconsvg-imagesvg" transform="translate(0,0)"><g><rect fill="#333" fill-opacity="0" stroke-width="2" x="0" y="0" width="59.99999999999999" height="72.71317077900042" class="image-rect"></rect> <svg x="0" y="0" width="59.99999999999999" height="72.71317077900042" filtersec="colorsb1771359866" class="image-svg-svg primary" style="overflow: visible;"><svg xmlns="http://www.w3.org/2000/svg" viewBox="-0.006403733976185322 0.00011593103408813477 155.96409606933594 189.0103759765625"><path d="M93.37 57.45v14.7a1.61 1.61 0 0 1-1 1.65l-88.14 46c-1.1.58-2.21 1.14-3.3 1.75-.71.39-.92.15-.9-.58s0-1.69 0-2.53V91.21a1.8 1.8 0 0 1 1.11-1.85Q30.9 73.85 60.65 58.29L91.9 41.94c.25-.13.51-.23.76-.37.54-.32.72-.09.71.46v2.17z" fill="#1b95d9"></path><path d="M155.88 83.23v14.69a1.62 1.62 0 0 1-1 1.67q-33.7 17.56-67.4 35.19l-23.77 12.44c-1.13.59-1.14.59-1.14-.69v-29.62a1.61 1.61 0 0 1 1-1.68Q92 100.4 120.49 85.5l34.13-17.84c1.25-.65 1.25-.65 1.25.76q0 7.41.01 14.81zM0 64.36V49.55A1.53 1.53 0 0 1 .93 48q25.41-13.22 50.78-26.5L91.6.6c1.77-.92 1.76-.94 1.76 1.07v28.79a1.68 1.68 0 0 1-1.07 1.75Q49.68 54.43 7.08 76.69C5.05 77.75 3 78.8 1 79.9c-.81.44-1 .3-1-.61V64.36z" fill="#f8831d"></path><path d="M62.57 173.26v-14.82a1.51 1.51 0 0 1 1-1.57q38.94-20.31 77.86-40.65l13.33-7c1.18-.62 1.19-.61 1.19.75v29.39a1.69 1.69 0 0 1-1.08 1.74q-41 21.38-82 42.81c-3.1 1.61-6.2 3.22-9.27 4.87-.83.45-1 .24-1-.62-.01-4.95-.03-9.93-.03-14.9z" fill="#1b95d9"></path><path d="M40.12 134.09v22.64c0 .33.2.81-.17 1s-.64-.25-.91-.45q-18.3-13.22-36.58-26.43c-.81-.59-.7-.83.11-1.25q18.24-9.52 36.43-19.08c.92-.48 1.11-.33 1.11.69 0 7.62.01 15.25.01 22.88z" fill="#f8831d"></path><path d="M115.82 55V32.47c0-.37-.22-.89.19-1.1s.71.27 1 .49l36 26c1.36 1 1.36 1-.15 1.79l-35.71 18.66c-1.31.68-1.32.67-1.32-.8q-.01-11.26-.01-22.51z" fill="#1b95d9"></path></svg></svg> <!----></g></g> <g transform="translate(67,22.79658603668213)"><g data-gra="path-name" fill-rule="" class="tp-name iconsvg-namesvg"><g transform="scale(1)"><g><path d="M25.69-20.54L25.69-20.54Q25.69-19.32 25.33-18.36 24.98-17.39 24.35-16.64 23.72-15.88 22.88-15.3 22.04-14.71 21.04-14.21L21.04-14.21Q21.5-14.04 22.13-13.68 22.76-13.33 23.34-12.7 23.93-12.07 24.33-11.08 24.73-10.1 24.73-8.68L24.73-8.68Q24.73-6.79 23.93-5.2 23.13-3.6 21.56-2.45 19.99-1.3 17.71-0.65 15.42 0 12.45 0L12.45 0 0 0 5.66-26.61 16.68-26.61Q18.31-26.61 19.93-26.38 21.54-26.15 22.82-25.48 24.1-24.81 24.89-23.62 25.69-22.42 25.69-20.54ZM12.36-15.46L14.29-15.46Q15.21-15.46 15.86-16.01 16.51-16.55 16.93-17.37 17.35-18.19 17.56-19.13 17.77-20.07 17.77-20.83L17.77-20.83Q17.77-22.04 17.2-22.9 16.64-23.76 15.42-23.76L15.42-23.76 14.17-23.76 12.36-15.46ZM9.6-2.64L11.27-2.64Q12.53-2.64 13.37-3.35 14.21-4.07 14.75-5.11 15.3-6.16 15.53-7.31 15.76-8.47 15.76-9.35L15.76-9.35Q15.76-10.81 15.15-11.67 14.54-12.53 13.2-12.53L13.2-12.53 11.65-12.53 9.6-2.64ZM38.05-18.02L34.16 0 25.65 0 29.46-18.02 38.05-18.02ZM39.14-23.51L39.14-23.51Q39.14-22.55 38.75-21.83 38.35-21.12 37.7-20.62 37.05-20.12 36.21-19.86 35.37-19.61 34.49-19.61L34.49-19.61Q32.81-19.61 31.68-20.41 30.55-21.21 30.55-22.92L30.55-22.92Q30.55-23.85 30.93-24.58 31.31-25.31 31.96-25.8 32.61-26.28 33.46-26.53 34.32-26.78 35.25-26.78L35.25-26.78Q36.88-26.78 38.01-25.98 39.14-25.19 39.14-23.51ZM51.55-18.48L51.55-18.48Q56.54-18.48 58.8-16.72L58.8-16.72Q61.19-14.88 61.19-10.6L61.19-10.6Q61.19-7.96 60.31-5.85 59.43-3.73 57.83-2.35L57.83-2.35Q54.65 0.34 48.61 0.34L48.61 0.34Q43.46 0.34 41.24-1.63L41.24-1.63Q38.85-3.69 38.85-7.8L38.85-7.8Q38.85-10.52 39.96-12.74 41.07-14.96 43.17-16.43L43.17-16.43Q46.23-18.48 51.55-18.48ZM48.7-2.51L48.7-2.51Q49.75-2.51 50.52-3.69 51.3-4.86 51.76-6.56 52.22-8.26 52.45-10.08 52.68-11.9 52.68-13.24L52.68-13.24Q52.68-14.42 52.45-15.02 52.22-15.63 51.46-15.63L51.46-15.63Q50.33-15.63 49.52-14.42 48.7-13.2 48.2-11.53 47.69-9.85 47.46-8.09 47.23-6.33 47.23-5.24L47.23-5.24Q47.23-2.51 48.7-2.51ZM98.65-26.61L92.95 0 83.65 0 87.51-18.1 77.57 0 71.87 0 69.99-18.73 65.97 0 62.19 0 67.85-26.61 78.54-26.61 79.84-11.61 87.88-26.61 98.65-26.61ZM118.23-8.42L106.45-8.42Q106.28-7.5 106.22-6.66 106.16-5.83 106.16-5.15L106.16-5.15Q106.16-4.78 106.2-4.32 106.24-3.86 106.39-3.46 106.53-3.06 106.81-2.79 107.08-2.51 107.58-2.51L107.58-2.51Q107.96-2.51 108.44-2.77 108.92-3.02 109.4-3.48 109.89-3.94 110.33-4.61 110.77-5.28 111.02-6.12L111.02-6.12 117.89-6.12 116.8-1.63Q115.96-1.09 114.87-0.71 113.78-0.34 112.57-0.1 111.35 0.13 110.1 0.23 108.84 0.34 107.71 0.34L107.71 0.34Q105.61 0.34 103.81-0.04 102.01-0.42 100.67-1.34 99.32-2.26 98.55-3.79 97.77-5.32 97.77-7.59L97.77-7.59Q97.77-9.64 98.42-11.61 99.07-13.58 100.6-15.11 102.13-16.64 104.71-17.56 107.29-18.48 111.14-18.48L111.14-18.48Q115.33-18.48 117.45-17.18 119.57-15.88 119.57-13.12L119.57-13.12Q119.57-11.99 119.23-10.67 118.9-9.35 118.23-8.42L118.23-8.42ZM112.02-13.41L112.02-13.41Q112.02-14.71 111.6-15.17 111.19-15.63 110.6-15.63L110.6-15.63Q109.93-15.63 109.36-15.19 108.8-14.75 108.34-14.02 107.87-13.29 107.5-12.34 107.12-11.4 106.87-10.35L106.87-10.35 111.65-10.35Q111.73-10.85 111.81-11.4L111.81-11.4Q111.9-11.86 111.96-12.41 112.02-12.95 112.02-13.41ZM121.37-15.21L121.96-18.02Q123.51-18.36 124.68-18.78 125.85-19.19 126.84-19.82 127.82-20.45 128.72-21.37 129.63-22.3 130.67-23.64L130.67-23.64 134.99-23.64 133.77-18.02 137.04-18.02 136.5-15.21 133.19-15.21 131.47-7.04Q131.26-6.08 131.13-5.32 131.01-4.57 131.01-4.15L131.01-4.15Q131.01-3.31 131.62-3.1 132.22-2.89 133.9-2.89L133.9-2.89 133.27 0Q132.98 0.08 132.37 0.13 131.76 0.17 131.03 0.23 130.3 0.29 129.52 0.31 128.75 0.34 128.16 0.34L128.16 0.34Q127.11 0.34 126.1 0.19 125.1 0.04 124.3-0.4 123.51-0.84 123.02-1.68 122.54-2.51 122.54-3.94L122.54-3.94Q122.54-4.44 122.61-5.2 122.67-5.95 122.88-6.87L122.88-6.87 124.64-15.21 121.37-15.21ZM138.68-12.74L139.47-16.47Q141.61-17.52 143.85-18 146.1-18.48 148.86-18.48L148.86-18.48Q151.54-18.48 153.3-18.06 155.06-17.64 156.11-16.85 157.16-16.05 157.58-14.96 158-13.87 158-12.49L158-12.49Q158-11.69 157.89-10.77 157.79-9.85 157.66-9.22L157.66-9.22 155.69 0 148.95 0 148.19-2.68 147.94-2.68Q146.6-1.22 144.82-0.44 143.04 0.34 141.28 0.34L141.28 0.34Q140.27 0.34 139.31 0.04 138.34-0.25 137.59-0.86 136.83-1.47 136.37-2.41 135.91-3.35 135.91-4.69L135.91-4.69Q135.91-6.87 137.11-8.15 138.3-9.43 140.25-10.08 142.2-10.73 144.65-10.9 147.1-11.06 149.57-11.06L149.57-11.06Q149.66-11.48 149.78-12.26 149.91-13.03 149.91-13.62L149.91-13.62Q149.91-14.37 149.51-15.02 149.11-15.67 147.86-15.67L147.86-15.67Q146.39-15.67 145.7-14.81 145.01-13.96 144.8-12.74L144.8-12.74 138.68-12.74ZM148.44-5.87L149.11-9.09 148.36-9.09Q147.14-9.09 146.28-8.78 145.42-8.47 144.9-7.96 144.38-7.46 144.13-6.83 143.87-6.2 143.87-5.57L143.87-5.57Q143.87-4.57 144.4-4.07 144.92-3.56 145.63-3.56L145.63-3.56Q146.51-3.56 147.37-4.19 148.23-4.82 148.44-5.87L148.44-5.87ZM177.9-12.74L172.46-12.74Q172.5-12.95 172.54-13.16 172.58-13.37 172.58-13.62L172.58-13.62Q172.58-14.37 172.31-15.02 172.04-15.67 171.24-15.67L171.24-15.67Q170.53-15.67 169.82-15.07 169.1-14.46 169.1-13.45L169.1-13.45Q169.1-12.78 169.46-12.38 169.82-11.99 170.4-11.73 170.99-11.48 171.72-11.32 172.46-11.15 173.17-10.98L173.17-10.98Q174.17-10.73 175.08-10.37 175.98-10.02 176.69-9.43 177.4-8.84 177.82-7.98 178.24-7.12 178.24-5.87L178.24-5.87Q178.24-4.11 177.42-2.91 176.61-1.72 175.16-0.98 173.71-0.25 171.76 0.04 169.82 0.34 167.59 0.34L167.59 0.34Q164.2 0.34 161.98-0.17 159.76-0.67 158.88-1.13L158.88-1.13 159.76-5.32 165.42-5.32Q165.37-5.11 165.37-4.92 165.37-4.74 165.37-4.53L165.37-4.53Q165.37-3.56 165.81-3 166.25-2.43 167.34-2.43L167.34-2.43Q168.56-2.43 169.08-3.12 169.61-3.81 169.61-4.4L169.61-4.4Q169.61-4.99 169.17-5.43 168.73-5.87 168.06-6.18 167.39-6.5 166.57-6.73 165.75-6.96 165-7.17L165-7.17Q164.45-7.29 163.76-7.59 163.07-7.88 162.44-8.42 161.81-8.97 161.39-9.83 160.97-10.69 160.97-11.99L160.97-11.99Q160.97-13.83 161.87-15.07 162.78-16.3 164.22-17.06 165.67-17.81 167.49-18.15 169.31-18.48 171.16-18.48L171.16-18.48Q173.46-18.48 175.52-18.06 177.57-17.64 178.87-16.97L178.87-16.97 177.9-12.74Z" transform="translate(0, 26.780000686645508)"></path></g> <!----> <!----> <!----> <!----> <!----> <!----> <!----></g></g> <!----></g></g><defs v-gra="od"></defs></svg>